<mxfile host="app.diagrams.net" modified="2021-10-27T08:00:05.433Z" agent="5.0 (Windows NT 10.0; Win64; x64) AppleWebKit/537.36 (KHTML, like Gecko) Chrome/95.0.4638.54 Safari/537.36" etag="IQN-k_567VbFE9sTA7_x" version="15.5.9" type="github">
  <diagram id="P5IaUtujt_lyZ__A8PGd" name="Page-1">
    <mxGraphModel dx="1913" dy="1989" grid="1" gridSize="10" guides="1" tooltips="1" connect="1" arrows="1" fold="1" page="1" pageScale="1" pageWidth="827" pageHeight="1169" math="0" shadow="0">
      <root>
        <mxCell id="0" />
        <mxCell id="1" parent="0" />
        <mxCell id="4LjRDhbbg3iNQEtS1Sf9-45" value="" style="edgeStyle=orthogonalEdgeStyle;rounded=0;orthogonalLoop=1;jettySize=auto;html=1;endArrow=none;endFill=0;" edge="1" parent="1" source="4LjRDhbbg3iNQEtS1Sf9-1" target="4LjRDhbbg3iNQEtS1Sf9-3">
          <mxGeometry relative="1" as="geometry" />
        </mxCell>
        <mxCell id="4LjRDhbbg3iNQEtS1Sf9-1" value="Hasiera" style="strokeWidth=2;html=1;shape=mxgraph.flowchart.terminator;whiteSpace=wrap;fillColor=#ffe6cc;strokeColor=#d79b00;" vertex="1" parent="1">
          <mxGeometry x="140" y="70" width="100" height="60" as="geometry" />
        </mxCell>
        <mxCell id="4LjRDhbbg3iNQEtS1Sf9-33" value="" style="edgeStyle=orthogonalEdgeStyle;rounded=0;orthogonalLoop=1;jettySize=auto;html=1;endArrow=none;endFill=0;" edge="1" parent="1" source="4LjRDhbbg3iNQEtS1Sf9-2" target="4LjRDhbbg3iNQEtS1Sf9-32">
          <mxGeometry relative="1" as="geometry" />
        </mxCell>
        <mxCell id="4LjRDhbbg3iNQEtS1Sf9-2" value="Amaiera" style="strokeWidth=2;html=1;shape=mxgraph.flowchart.terminator;whiteSpace=wrap;fillColor=#ffe6cc;strokeColor=#d79b00;" vertex="1" parent="1">
          <mxGeometry x="100" y="1864" width="100" height="60" as="geometry" />
        </mxCell>
        <mxCell id="4LjRDhbbg3iNQEtS1Sf9-3" value="prezioak &amp;lt;- {1.5, 2, 2, 2, 1.8, 1.5, 2, 1, }&lt;br&gt;prduktuak &amp;lt;- {&#39;Ur botilatxoa&#39;, &#39;Kola botilatxoa&#39;, &#39;Laranja botilatxoa&#39;, &#39;Limoi botilatxoa&#39;, &#39;Nestea&#39;, &#39;Kit-Kat&#39;, &#39;Toblerone&#39;, &#39;Fruitu lehorrak&#39;}&lt;br&gt;kantitateak &amp;lt;- {0, 0, 0, 0, 0, 0, 0, 0}&lt;br&gt;op &amp;lt;- Osoa&lt;br&gt;gPrezioa &amp;lt;- Erreala&lt;br&gt;jarraitu &amp;lt;- Osoa&lt;br&gt;kont &amp;lt;- Osoa" style="whiteSpace=wrap;html=1;align=center;fillColor=#fff2cc;strokeColor=#d6b656;" vertex="1" parent="1">
          <mxGeometry x="-20" y="170" width="420" height="120" as="geometry" />
        </mxCell>
        <mxCell id="4LjRDhbbg3iNQEtS1Sf9-44" value="" style="edgeStyle=orthogonalEdgeStyle;rounded=0;orthogonalLoop=1;jettySize=auto;html=1;endArrow=none;endFill=0;" edge="1" parent="1" source="4LjRDhbbg3iNQEtS1Sf9-4" target="4LjRDhbbg3iNQEtS1Sf9-3">
          <mxGeometry relative="1" as="geometry" />
        </mxCell>
        <mxCell id="4LjRDhbbg3iNQEtS1Sf9-4" value="&#39;Menu&#39;" style="shape=parallelogram;html=1;strokeWidth=2;perimeter=parallelogramPerimeter;whiteSpace=wrap;rounded=1;arcSize=12;size=0.23;fillColor=#d5e8d4;strokeColor=#82b366;" vertex="1" parent="1">
          <mxGeometry x="140" y="330" width="100" height="60" as="geometry" />
        </mxCell>
        <mxCell id="4LjRDhbbg3iNQEtS1Sf9-6" value="" style="endArrow=classic;html=1;rounded=0;" edge="1" parent="1">
          <mxGeometry width="50" height="50" relative="1" as="geometry">
            <mxPoint x="228" y="339" as="sourcePoint" />
            <mxPoint x="248" y="319" as="targetPoint" />
          </mxGeometry>
        </mxCell>
        <mxCell id="4LjRDhbbg3iNQEtS1Sf9-43" value="" style="edgeStyle=orthogonalEdgeStyle;rounded=0;orthogonalLoop=1;jettySize=auto;html=1;endArrow=none;endFill=0;" edge="1" parent="1" source="4LjRDhbbg3iNQEtS1Sf9-7" target="4LjRDhbbg3iNQEtS1Sf9-4">
          <mxGeometry relative="1" as="geometry" />
        </mxCell>
        <mxCell id="4LjRDhbbg3iNQEtS1Sf9-7" value="op" style="shape=parallelogram;html=1;strokeWidth=2;perimeter=parallelogramPerimeter;whiteSpace=wrap;rounded=1;arcSize=12;size=0.23;fillColor=#f8cecc;strokeColor=#b85450;" vertex="1" parent="1">
          <mxGeometry x="140" y="440" width="100" height="60" as="geometry" />
        </mxCell>
        <mxCell id="4LjRDhbbg3iNQEtS1Sf9-8" value="" style="endArrow=classic;html=1;rounded=0;" edge="1" parent="1">
          <mxGeometry width="50" height="50" relative="1" as="geometry">
            <mxPoint x="247" y="430" as="sourcePoint" />
            <mxPoint x="221.5" y="455" as="targetPoint" />
          </mxGeometry>
        </mxCell>
        <mxCell id="4LjRDhbbg3iNQEtS1Sf9-12" style="edgeStyle=orthogonalEdgeStyle;rounded=0;orthogonalLoop=1;jettySize=auto;html=1;entryX=0.5;entryY=0;entryDx=0;entryDy=0;endArrow=none;endFill=0;" edge="1" parent="1" source="4LjRDhbbg3iNQEtS1Sf9-9" target="4LjRDhbbg3iNQEtS1Sf9-11">
          <mxGeometry relative="1" as="geometry" />
        </mxCell>
        <mxCell id="4LjRDhbbg3iNQEtS1Sf9-13" style="edgeStyle=orthogonalEdgeStyle;rounded=0;orthogonalLoop=1;jettySize=auto;html=1;entryX=0.5;entryY=0;entryDx=0;entryDy=0;endArrow=none;endFill=0;" edge="1" parent="1" source="4LjRDhbbg3iNQEtS1Sf9-9" target="4LjRDhbbg3iNQEtS1Sf9-10">
          <mxGeometry relative="1" as="geometry" />
        </mxCell>
        <mxCell id="4LjRDhbbg3iNQEtS1Sf9-46" style="edgeStyle=orthogonalEdgeStyle;rounded=0;orthogonalLoop=1;jettySize=auto;html=1;exitX=0.5;exitY=0;exitDx=0;exitDy=0;entryX=0.5;entryY=1;entryDx=0;entryDy=0;endArrow=none;endFill=0;" edge="1" parent="1" source="4LjRDhbbg3iNQEtS1Sf9-9" target="4LjRDhbbg3iNQEtS1Sf9-7">
          <mxGeometry relative="1" as="geometry" />
        </mxCell>
        <mxCell id="4LjRDhbbg3iNQEtS1Sf9-9" value="op==0" style="shape=rhombus;perimeter=rhombusPerimeter;whiteSpace=wrap;html=1;align=center;fillColor=#dae8fc;strokeColor=#6c8ebf;" vertex="1" parent="1">
          <mxGeometry x="130" y="530" width="120" height="60" as="geometry" />
        </mxCell>
        <mxCell id="4LjRDhbbg3iNQEtS1Sf9-34" style="edgeStyle=orthogonalEdgeStyle;rounded=0;orthogonalLoop=1;jettySize=auto;html=1;entryX=0.5;entryY=0;entryDx=0;entryDy=0;endArrow=none;endFill=0;" edge="1" parent="1" source="4LjRDhbbg3iNQEtS1Sf9-10" target="4LjRDhbbg3iNQEtS1Sf9-32">
          <mxGeometry relative="1" as="geometry">
            <Array as="points">
              <mxPoint x="560" y="1700" />
              <mxPoint x="150" y="1700" />
            </Array>
          </mxGeometry>
        </mxCell>
        <mxCell id="4LjRDhbbg3iNQEtS1Sf9-10" value="jarraitu &amp;lt;- 0" style="whiteSpace=wrap;html=1;align=center;fillColor=#FFF2CC;" vertex="1" parent="1">
          <mxGeometry x="510" y="1040" width="100" height="40" as="geometry" />
        </mxCell>
        <mxCell id="4LjRDhbbg3iNQEtS1Sf9-31" style="edgeStyle=orthogonalEdgeStyle;rounded=0;orthogonalLoop=1;jettySize=auto;html=1;entryX=0.5;entryY=0;entryDx=0;entryDy=0;endArrow=none;endFill=0;" edge="1" parent="1" source="4LjRDhbbg3iNQEtS1Sf9-11" target="4LjRDhbbg3iNQEtS1Sf9-14">
          <mxGeometry relative="1" as="geometry">
            <Array as="points">
              <mxPoint x="150" y="640" />
            </Array>
          </mxGeometry>
        </mxCell>
        <mxCell id="4LjRDhbbg3iNQEtS1Sf9-42" style="edgeStyle=orthogonalEdgeStyle;rounded=0;orthogonalLoop=1;jettySize=auto;html=1;endArrow=none;endFill=0;entryX=0.5;entryY=0;entryDx=0;entryDy=0;" edge="1" parent="1" source="4LjRDhbbg3iNQEtS1Sf9-11" target="4LjRDhbbg3iNQEtS1Sf9-32">
          <mxGeometry relative="1" as="geometry">
            <mxPoint x="-80" y="1810" as="targetPoint" />
            <Array as="points">
              <mxPoint x="-200" y="640" />
              <mxPoint x="-200" y="1700" />
              <mxPoint x="150" y="1700" />
            </Array>
          </mxGeometry>
        </mxCell>
        <mxCell id="4LjRDhbbg3iNQEtS1Sf9-11" value="op&amp;gt;0 Y op&amp;lt;9" style="shape=rhombus;perimeter=rhombusPerimeter;whiteSpace=wrap;html=1;align=center;fillColor=#dae8fc;strokeColor=#6c8ebf;" vertex="1" parent="1">
          <mxGeometry x="-80" y="610" width="120" height="60" as="geometry" />
        </mxCell>
        <mxCell id="4LjRDhbbg3iNQEtS1Sf9-30" value="" style="edgeStyle=orthogonalEdgeStyle;rounded=0;orthogonalLoop=1;jettySize=auto;html=1;endArrow=none;endFill=0;" edge="1" parent="1" source="4LjRDhbbg3iNQEtS1Sf9-14" target="4LjRDhbbg3iNQEtS1Sf9-15">
          <mxGeometry relative="1" as="geometry" />
        </mxCell>
        <mxCell id="4LjRDhbbg3iNQEtS1Sf9-14" value="gPrezioa &amp;lt;- gPrezioa+prezioak[op]*1.21&lt;br&gt;kantitateak[op] &amp;lt;- kantitateak[op]+1" style="whiteSpace=wrap;html=1;align=center;fillColor=#FFF2CC;" vertex="1" parent="1">
          <mxGeometry x="25" y="730" width="250" height="80" as="geometry" />
        </mxCell>
        <mxCell id="4LjRDhbbg3iNQEtS1Sf9-29" value="" style="edgeStyle=orthogonalEdgeStyle;rounded=0;orthogonalLoop=1;jettySize=auto;html=1;endArrow=none;endFill=0;" edge="1" parent="1" source="4LjRDhbbg3iNQEtS1Sf9-15" target="4LjRDhbbg3iNQEtS1Sf9-18">
          <mxGeometry relative="1" as="geometry" />
        </mxCell>
        <mxCell id="4LjRDhbbg3iNQEtS1Sf9-15" value="produktuak[op] + &#39; autatu duzu&#39;" style="shape=parallelogram;html=1;strokeWidth=2;perimeter=parallelogramPerimeter;whiteSpace=wrap;rounded=1;arcSize=12;size=0.23;fillColor=#d5e8d4;strokeColor=#82b366;" vertex="1" parent="1">
          <mxGeometry x="35" y="840" width="230" height="70" as="geometry" />
        </mxCell>
        <mxCell id="4LjRDhbbg3iNQEtS1Sf9-16" value="" style="endArrow=classic;html=1;rounded=0;" edge="1" parent="1">
          <mxGeometry width="50" height="50" relative="1" as="geometry">
            <mxPoint x="250" y="850" as="sourcePoint" />
            <mxPoint x="270" y="830" as="targetPoint" />
          </mxGeometry>
        </mxCell>
        <mxCell id="4LjRDhbbg3iNQEtS1Sf9-17" value="kont &amp;lt;- 1" style="whiteSpace=wrap;html=1;align=center;fillColor=#FFF2CC;" vertex="1" parent="1">
          <mxGeometry x="100" y="940" width="100" height="40" as="geometry" />
        </mxCell>
        <mxCell id="4LjRDhbbg3iNQEtS1Sf9-19" value="" style="edgeStyle=orthogonalEdgeStyle;rounded=0;orthogonalLoop=1;jettySize=auto;html=1;endArrow=none;endFill=0;" edge="1" parent="1" source="4LjRDhbbg3iNQEtS1Sf9-18" target="4LjRDhbbg3iNQEtS1Sf9-17">
          <mxGeometry relative="1" as="geometry" />
        </mxCell>
        <mxCell id="4LjRDhbbg3iNQEtS1Sf9-21" value="" style="edgeStyle=orthogonalEdgeStyle;rounded=0;orthogonalLoop=1;jettySize=auto;html=1;endArrow=none;endFill=0;" edge="1" parent="1" source="4LjRDhbbg3iNQEtS1Sf9-18" target="4LjRDhbbg3iNQEtS1Sf9-20">
          <mxGeometry relative="1" as="geometry" />
        </mxCell>
        <mxCell id="4LjRDhbbg3iNQEtS1Sf9-37" style="edgeStyle=orthogonalEdgeStyle;rounded=0;orthogonalLoop=1;jettySize=auto;html=1;entryX=0.5;entryY=0;entryDx=0;entryDy=0;endArrow=none;endFill=0;" edge="1" parent="1" source="4LjRDhbbg3iNQEtS1Sf9-18" target="4LjRDhbbg3iNQEtS1Sf9-35">
          <mxGeometry relative="1" as="geometry">
            <Array as="points">
              <mxPoint x="490" y="1050" />
              <mxPoint x="490" y="1460" />
              <mxPoint x="150" y="1460" />
            </Array>
          </mxGeometry>
        </mxCell>
        <mxCell id="4LjRDhbbg3iNQEtS1Sf9-18" value="kont&amp;lt;9" style="shape=rhombus;perimeter=rhombusPerimeter;whiteSpace=wrap;html=1;align=center;fillColor=#e1d5e7;strokeColor=#9673a6;" vertex="1" parent="1">
          <mxGeometry x="90" y="1020" width="120" height="60" as="geometry" />
        </mxCell>
        <mxCell id="4LjRDhbbg3iNQEtS1Sf9-24" style="edgeStyle=orthogonalEdgeStyle;rounded=0;orthogonalLoop=1;jettySize=auto;html=1;entryX=0.5;entryY=0;entryDx=0;entryDy=0;endArrow=none;endFill=0;" edge="1" parent="1" source="4LjRDhbbg3iNQEtS1Sf9-20" target="4LjRDhbbg3iNQEtS1Sf9-22">
          <mxGeometry relative="1" as="geometry">
            <Array as="points">
              <mxPoint x="265" y="1150" />
            </Array>
          </mxGeometry>
        </mxCell>
        <mxCell id="4LjRDhbbg3iNQEtS1Sf9-27" style="edgeStyle=orthogonalEdgeStyle;rounded=0;orthogonalLoop=1;jettySize=auto;html=1;endArrow=none;endFill=0;" edge="1" parent="1" source="4LjRDhbbg3iNQEtS1Sf9-20">
          <mxGeometry relative="1" as="geometry">
            <mxPoint x="150" y="1370" as="targetPoint" />
            <Array as="points">
              <mxPoint x="-10" y="1150" />
              <mxPoint x="-10" y="1330" />
              <mxPoint x="150" y="1330" />
            </Array>
          </mxGeometry>
        </mxCell>
        <mxCell id="4LjRDhbbg3iNQEtS1Sf9-20" value="kantitateak[kont]&amp;gt;0" style="shape=rhombus;perimeter=rhombusPerimeter;whiteSpace=wrap;html=1;align=center;fillColor=#dae8fc;strokeColor=#6c8ebf;" vertex="1" parent="1">
          <mxGeometry x="80" y="1120" width="140" height="60" as="geometry" />
        </mxCell>
        <mxCell id="4LjRDhbbg3iNQEtS1Sf9-26" style="edgeStyle=orthogonalEdgeStyle;rounded=0;orthogonalLoop=1;jettySize=auto;html=1;entryX=0.5;entryY=0;entryDx=0;entryDy=0;endArrow=none;endFill=0;" edge="1" parent="1" source="4LjRDhbbg3iNQEtS1Sf9-22" target="4LjRDhbbg3iNQEtS1Sf9-25">
          <mxGeometry relative="1" as="geometry" />
        </mxCell>
        <mxCell id="4LjRDhbbg3iNQEtS1Sf9-22" value="kantitateak[kont] + &#39;&amp;nbsp; &#39; + produktuak[kont]" style="shape=parallelogram;html=1;strokeWidth=2;perimeter=parallelogramPerimeter;whiteSpace=wrap;rounded=1;arcSize=12;size=0.23;fillColor=#d5e8d4;strokeColor=#82b366;" vertex="1" parent="1">
          <mxGeometry x="120" y="1220" width="350" height="70" as="geometry" />
        </mxCell>
        <mxCell id="4LjRDhbbg3iNQEtS1Sf9-23" value="" style="endArrow=classic;html=1;rounded=0;" edge="1" parent="1">
          <mxGeometry width="50" height="50" relative="1" as="geometry">
            <mxPoint x="440" y="1229.9999999999998" as="sourcePoint" />
            <mxPoint x="460" y="1209.9999999999998" as="targetPoint" />
          </mxGeometry>
        </mxCell>
        <mxCell id="4LjRDhbbg3iNQEtS1Sf9-28" style="edgeStyle=orthogonalEdgeStyle;rounded=0;orthogonalLoop=1;jettySize=auto;html=1;endArrow=none;endFill=0;" edge="1" parent="1" source="4LjRDhbbg3iNQEtS1Sf9-25">
          <mxGeometry relative="1" as="geometry">
            <mxPoint x="150" y="1000" as="targetPoint" />
            <Array as="points">
              <mxPoint x="150" y="1440" />
              <mxPoint x="-40" y="1440" />
              <mxPoint x="-40" y="1000" />
            </Array>
          </mxGeometry>
        </mxCell>
        <mxCell id="4LjRDhbbg3iNQEtS1Sf9-25" value="kont &amp;lt;- kont + 1" style="whiteSpace=wrap;html=1;align=center;fillColor=#FFF2CC;" vertex="1" parent="1">
          <mxGeometry x="100" y="1370" width="100" height="40" as="geometry" />
        </mxCell>
        <mxCell id="4LjRDhbbg3iNQEtS1Sf9-47" style="edgeStyle=orthogonalEdgeStyle;rounded=0;orthogonalLoop=1;jettySize=auto;html=1;endArrow=none;endFill=0;" edge="1" parent="1" source="4LjRDhbbg3iNQEtS1Sf9-32">
          <mxGeometry relative="1" as="geometry">
            <mxPoint x="190" y="310" as="targetPoint" />
            <Array as="points">
              <mxPoint x="-280" y="1784" />
              <mxPoint x="-280" y="310" />
            </Array>
          </mxGeometry>
        </mxCell>
        <mxCell id="4LjRDhbbg3iNQEtS1Sf9-32" value="jarraitu==0" style="shape=rhombus;perimeter=rhombusPerimeter;whiteSpace=wrap;html=1;align=center;fillColor=#e1d5e7;strokeColor=#9673a6;" vertex="1" parent="1">
          <mxGeometry x="90" y="1754" width="120" height="60" as="geometry" />
        </mxCell>
        <mxCell id="4LjRDhbbg3iNQEtS1Sf9-35" value="&#39;1 Jarraitzeko 0 amaitzeko&#39;" style="shape=parallelogram;html=1;strokeWidth=2;perimeter=parallelogramPerimeter;whiteSpace=wrap;rounded=1;arcSize=12;size=0.23;fillColor=#d5e8d4;strokeColor=#82b366;" vertex="1" parent="1">
          <mxGeometry x="45" y="1500" width="210" height="60" as="geometry" />
        </mxCell>
        <mxCell id="4LjRDhbbg3iNQEtS1Sf9-36" value="" style="endArrow=classic;html=1;rounded=0;" edge="1" parent="1">
          <mxGeometry width="50" height="50" relative="1" as="geometry">
            <mxPoint x="235" y="1510" as="sourcePoint" />
            <mxPoint x="255" y="1490" as="targetPoint" />
          </mxGeometry>
        </mxCell>
        <mxCell id="4LjRDhbbg3iNQEtS1Sf9-40" style="edgeStyle=orthogonalEdgeStyle;rounded=0;orthogonalLoop=1;jettySize=auto;html=1;exitX=0.5;exitY=0;exitDx=0;exitDy=0;entryX=0.5;entryY=1;entryDx=0;entryDy=0;endArrow=none;endFill=0;" edge="1" parent="1" source="4LjRDhbbg3iNQEtS1Sf9-38" target="4LjRDhbbg3iNQEtS1Sf9-35">
          <mxGeometry relative="1" as="geometry" />
        </mxCell>
        <mxCell id="4LjRDhbbg3iNQEtS1Sf9-41" style="edgeStyle=orthogonalEdgeStyle;rounded=0;orthogonalLoop=1;jettySize=auto;html=1;exitX=0.5;exitY=1;exitDx=0;exitDy=0;endArrow=none;endFill=0;entryX=0.5;entryY=0;entryDx=0;entryDy=0;" edge="1" parent="1" source="4LjRDhbbg3iNQEtS1Sf9-38" target="4LjRDhbbg3iNQEtS1Sf9-32">
          <mxGeometry relative="1" as="geometry">
            <mxPoint x="-80" y="1690" as="targetPoint" />
            <Array as="points">
              <mxPoint x="150" y="1730" />
              <mxPoint x="150" y="1730" />
            </Array>
          </mxGeometry>
        </mxCell>
        <mxCell id="4LjRDhbbg3iNQEtS1Sf9-38" value="jarraitu" style="shape=parallelogram;html=1;strokeWidth=2;perimeter=parallelogramPerimeter;whiteSpace=wrap;rounded=1;arcSize=12;size=0.23;fillColor=#f8cecc;strokeColor=#b85450;" vertex="1" parent="1">
          <mxGeometry x="80" y="1590" width="140" height="40" as="geometry" />
        </mxCell>
        <mxCell id="4LjRDhbbg3iNQEtS1Sf9-39" value="" style="endArrow=classic;html=1;rounded=0;" edge="1" parent="1">
          <mxGeometry width="50" height="50" relative="1" as="geometry">
            <mxPoint x="225" y="1580" as="sourcePoint" />
            <mxPoint x="200" y="1600" as="targetPoint" />
          </mxGeometry>
        </mxCell>
      </root>
    </mxGraphModel>
  </diagram>
</mxfile>
